<svg width="31" height="193" viewBox="0 0 31 193" xmlns="http://www.w3.org/2000/svg" xmlns:xlink="http://www.w3.org/1999/xlink"><title>Artboard 1</title><defs><path id="a" d="M0 0h24.85v17H0z"/><path id="c" d="M0 0h25v17H0z"/><path id="e" d="M0 0h25v17H0z"/><ellipse id="g" cx="4.354" cy="4.24" rx="4.354" ry="4.24"/></defs><g fill="none" fill-rule="evenodd"><g transform="translate(3 2)"><path fill="#FF991E" d="M0 .157h24.844v5.558H0z"/><path fill="#FFF" d="M0 5.72h24.844v5.56H0z"/><path fill="#018900" d="M0 11.284h24.844v5.558H0z"/><path d="M12.422 9.63l-.4 1.585.08-1.632-.847 1.393.554-1.535-1.218 1.08.98-1.302-1.48.672 1.316-.955-1.61.203 1.538-.522-1.597-.284 1.62-.042-1.443-.746 1.562.442-1.162-1.14 1.363.884-.774-1.435 1.043 1.25-.32-1.6.63 1.505.162-1.626.162 1.626.63-1.506-.32 1.602 1.043-1.25-.775 1.434 1.363-.885-1.16 1.14 1.56-.44-1.442.745 1.622.042-1.597.284 1.537.522-1.61-.203 1.317.955-1.48-.672.98 1.303-1.217-1.08.554 1.536-.847-1.393.08 1.632-.4-1.584z" fill="#0074E9"/><ellipse stroke="#0074E8" stroke-width=".5" cx="12.422" cy="8.534" rx="2.813" ry="2.833"/></g><g mask="url(#b)" transform="translate(3 77)"><path fill="#FFF" d="M0 0h29.398v16.94H0z"/><path fill="#CE0000" d="M0 0h29.398v1.355H0zM0 3.117h29.398v1.355H0zM0 6.234h29.398V7.59H0zM0 9.486h29.398v1.355H0zM0 12.468h29.398v1.355H0zM0 15.585h29.398v1.355H0z"/><path fill="#000068" d="M0 0h15.75v10.842H0z"/><g fill="#FFCD00"><path d="M9.777 7.115l-.584 1.287.015-1.42-1.067.897.61-1.276-1.337.332 1.085-.875-1.345-.3 1.345-.302-1.085-.874 1.338.33-.61-1.274 1.068.9-.015-1.423.584 1.287.585-1.287-.015 1.422 1.067-.9-.61 1.275 1.338-.33-1.085.873 1.345.302-1.345.3 1.085.876-1.338-.332.61 1.275-1.067-.9.015 1.422-.585-1.287z"/><path d="M7.425 2.072a3.18 3.18 0 0 0-.93.015c-1.79.293-3.012 2.028-2.73 3.876C4.05 7.81 5.73 9.07 7.518 8.78c-1.41-.186-2.59-1.31-2.823-2.83-.283-1.85.938-3.585 2.728-3.877h.003z"/></g></g><path fill="#ED3B43" d="M3 27h25v17H3z"/><path fill="#004890" d="M3 27h25v8.5H3z"/><path d="M3 27l10.833 8.5L3 44V27z" fill="#FFF"/><path d="M4.667 30.825l-.49.263.093-.557-.396-.393.548-.08.245-.507.245.506.547.08-.397.395.093.558-.49-.263zM11.333 35.925l-.49.263.094-.557-.396-.393.548-.08.245-.507.245.506.548.08-.396.395.093.558-.49-.263zM4.667 41.025l-.49.263.093-.557-.396-.393.548-.08.245-.507.245.506.547.08-.397.395.093.558-.49-.263z" fill="#FFD543"/><g transform="translate(3.563 32.296)"><ellipse fill="#FFD543" cx="3.38" cy="3.361" rx="1.442" ry="1.431"/><g stroke="#FFD543" stroke-width=".5"><path d="M3.416 2.133V1.06M3.272 1.99v-.787M3.56 1.99v-.787"/></g><g stroke="#FFD543" stroke-width=".5"><path d="M3.416 5.64V4.565M3.272 5.496V4.71M3.56 5.496V4.71"/></g><g stroke-width=".5" stroke="#FFD543"><path d="M2.18 3.42H1.11M2.038 3.565H1.25M2.038 3.277H1.25"/><g><path d="M5.616 3.42H4.542M5.472 3.565h-.787M5.472 3.277h-.787"/></g></g><g stroke-width=".5" stroke="#FFD543"><path d="M2.527 2.586l-.76-.76M2.324 2.587l-.557-.557M2.528 2.383l-.557-.557"/><g><path d="M4.955 5.015l-.758-.76M4.752 5.015l-.556-.556M4.956 4.81L4.4 4.256"/></g></g><g stroke-width=".5" stroke="#FFD543"><path d="M4.167 2.557l.732-.784M4.16 2.354l.536-.575M4.37 2.55l.537-.574"/><g><path d="M1.825 5.07l.732-.786M1.817 4.866l.537-.575M2.028 5.063l.537-.576"/></g></g></g><g><g mask="url(#d)" transform="translate(3 52)"><path fill="#F02532" d="M0 0h30.484v9.323H0z"/><path fill="#FFF" d="M0 9.323h30.484V17H0z"/><g fill="#FFF"><path d="M8.914 3.222l-.48.254.092-.538-.39-.382.538-.078.24-.49.24.49.536.078-.388.382.092.538-.48-.254zM10.82 4.593l-.48.254.09-.538-.388-.383.537-.078.24-.49.24.49.536.077-.39.382.093.537-.48-.254zM10.14 6.786l-.48.254.09-.538-.388-.38.537-.08.24-.49.24.49.535.08-.388.38.092.538-.48-.254zM7.69 6.786l-.48.254.09-.538-.388-.38.537-.08.24-.49.24.49.536.08-.39.38.093.538-.48-.254zM7.01 4.593l-.48.254.09-.538-.388-.383.537-.078.24-.49.24.49.535.077-.388.382.092.537-.48-.254z"/><path d="M7.03 1.218a3.38 3.38 0 0 0-.965.05c-1.845.36-3.05 2.16-2.69 4.018.358 1.857 2.142 3.07 3.985 2.71a3.413 3.413 0 0 1-3.025-2.76C3.977 3.38 5.18 1.58 7.025 1.22l.004-.002z"/></g></g></g><g><g mask="url(#f)" transform="translate(3 103)"><path fill="#F02532" d="M0 0h30.484v8.692H0z"/><path fill="#FFF" d="M0 8.693h30.484v8.938H0z"/></g></g><g><path fill="#FFF" d="M3 129h24.974v13.974H3z"/><path fill="#9C4314" d="M12.563 136.504c.002-.003.094-.162.084-.136.042.032.12 0 .064-.07.014-.03.032-.052.045-.08.032-.058-.035-.083-.06-.043-.017.03-.033.048-.05.078-.083-.04-.09.053-.048.07-.018.024-.05.064-.066.09l.033.09z"/><path fill="#9C4314" d="M12.552 136.468c-.003-.002-.167-.09-.14-.08.032-.042 0-.118-.073-.062-.03-.013-.054-.03-.084-.042-.06-.03-.083.035-.042.06.03.016.05.03.08.046-.038.083.056.087.072.048.025.017.124.073.15.09.03-.01.005-.05.036-.06zM13.143 137.44c0-.005.005-.187.008-.16.054.008.108-.055.023-.092-.002-.032.002-.06 0-.09 0-.066-.07-.057-.075-.01 0 .035-.004.058-.004.092-.092.004-.053.088-.01.083l-.014.11.073.066z"/><path fill="#9C4314" d="M13.116 137.413c-.003 0-.19-.002-.162-.005.008-.053-.057-.104-.094-.02-.033.002-.06-.002-.094 0-.066 0-.055.07-.007.074.034 0 .058.003.092.002.007.09.09.05.086.01l.157.015c.022-.025 0-.053.02-.077z"/><path d="M15.05 138.04s.063.084.092.087c.09.007.8 0 .8 0l.026-.015c.024-.03.022-.046.045-.076.038-.036.09-.048.128-.084.162-.038.306-.076.466-.1-.013-.094-.11-.074-.16-.11-.016-.015-.013-.03-.003-.044l.355-.16v-.038c-.252.03-.485.077-.756.088-.308.124-.617.25-.926.373l-.067.08z" fill="#42B2F3"/><path d="M12.516 136.436h-.03c.15 0 .03.003 0-.1"/><path d="M12.503 136.416c-.048-.167-.126-.312-.307-.355-.034-.007-.058-.102 0-.097.03.012 0-.006.03.006.033.01.083-.014.062-.067 0-.006-.06-.112-.06-.115-.012-.012.01-.08.064-.044.025.017.05.056.088.063.014-.002.023-.043.02-.075l.003-.11c-.012-.062.045-.095.09-.047.004.016 0 .016.004.03.01.022.023.026.038.005l.06-.06c.037-.013.06-.026.062.047 0 0-.05.06-.073.083-.013.018-.04.042.007.056l.067.008c.043.018.048.064.016.07 0 0-.034.037-.093.07-.018.013-.033.03-.017.05.034.013.023 0 .08 0 .05-.01.046.106-.043.1-.026.005-.06.002-.075.044a.77.77 0 0 0-.008.11c-.006.074.005.178.005.18.007.054-.012.035-.02.048zM13.028 137.372c-.007-.008-.167-.18-.353-.16-.034.004-.09-.078-.035-.092.035 0 .008-.004.042-.003.03-.02-.023-.08-.047-.06-.002-.006-.064.013-.09.008-.08-.008-.116-.096-.057-.13a.37.37 0 0 0 .144.01c.037-.01.02-.044-.016-.048-.05-.008-.257-.057-.24-.08-.033-.057 0-.1.06-.07.05.03.056.013.044-.01-.015-.04-.03-.03-.03-.067-.005-.023.003-.044.038-.03.014-.01.04.075.13.043.017.013.032-.094.095-.078.048.014.015.063.025.13.007.047.053.036.06.013-.01-.104.093-.106.105-.07.01.025.02.095.006.16-.008.033-.002.1.02.113.036.002.012-.006.037-.043.043-.027.108.07.03.118-.08.017.047.32.058.336-.012.013-.026-.002-.027.012z" fill="#008D00"/><path fill="#9C4314" d="M14.023 138.18c0-.003-.025-.184-.018-.157.054 0 .097-.07.007-.094-.007-.032-.007-.06-.014-.092-.01-.063-.08-.043-.076.004.006.033.005.057.01.09-.09.02-.037.095.005.084l.003.11c.028.02.055.037.083.055z"/><path fill="#9C4314" d="M14.02 138.16c-.004 0-.19.027-.16.02-.002-.053-.075-.095-.097-.007-.032.008-.06.008-.093.016-.065.01-.043.077.005.072.034-.006.058-.005.092-.01.02.087.098.035.086-.006l.158-.008c.02-.027-.008-.05.01-.08z"/><path d="M13.956 137.168c.453.26.57.223.55.108.022 0 .026.018.09-.028-.008.17.182.27.298.25.105.005.09.14.09.14.008.14-.04.196-.034.335l-.004-.017c-.13-.03-.383-.033-.478-.053.436-.292-.335-.3-.404-.31-.053-.006-.015-.056.015-.07.24-.045-.226-.268-.214-.294-.03-.018.002-.03.002-.03.03-.02.057-.012.088-.032z" fill="#33B1E9"/><path d="M15.086 137.39a.14.14 0 0 0-.142.138 1.2 1.2 0 0 0 0 .397c0 .077.063.14.142.14.313.032.65.023.94 0a.14.14 0 0 0 .14-.14.83.83 0 0 0 0-.397.14.14 0 0 0-.14-.138c-.314-.014-.634-.03-.94 0z" fill="#983D25"/><path fill="#268728" d="M14.028 133.61l-.214.182c-.088.038-.184.086-.115.29-.04.26.173.3.36.246.032-.067.042-.114.073-.18-.083-.014-.127.015-.203.01-.05-.008-.055-.047-.036-.072l.235-.116c-.003-.012-.004-.003-.006-.015-.067.034-.115.045-.186.073-.056.02-.072-.05-.05-.082 0 0 .146-.204.146-.206a.242.242 0 0 0-.006-.13z"/><path fill="#FFF" d="M14.627 137.18a.11.11 0 0 0-.112-.11.11.11 0 0 0-.112.11c0 .04.02.077.056.097.033.02.076.02.11 0a.11.11 0 0 0 .057-.096h-.112.112zM14.095 137.596a.105.105 0 0 0-.106-.104.105.105 0 0 0-.107.104c0 .037.02.07.053.09.032.018.073.018.106 0a.103.103 0 0 0 .053-.09h-.106.105zM16.725 137.828a.105.105 0 0 0-.106-.104.105.105 0 0 0-.107.104c0 .037.02.072.053.09.033.02.074.02.106 0a.103.103 0 0 0 .053-.09h-.106.105z"/><path fill="#BA4600" d="M14.098 133.75c.008.06.013.14.013.164-.007-.06-.074-.105-.1-.128a.504.504 0 0 1 .088-.037z"/><path fill="#973100" d="M15.076 137.954a.105.105 0 0 0-.106-.104.105.105 0 0 0-.105.104c0 .037.02.07.052.09.033.02.074.02.107 0a.103.103 0 0 0 .052-.09h-.106.106zM16.193 137.954a.105.105 0 0 0-.106-.104.105.105 0 0 0-.106.104c0 .037.02.07.054.09.033.02.073.02.106 0a.103.103 0 0 0 .053-.09h-.106.106zM16.193 137.45a.105.105 0 0 0-.106-.103.105.105 0 0 0-.106.104c0 .038.02.073.054.09.033.02.073.02.106 0a.103.103 0 0 0 .053-.09h-.106.106zM15.083 137.45a.105.105 0 0 0-.106-.103.105.105 0 0 0-.106.104c0 .038.02.073.054.09.033.02.073.02.106 0a.103.103 0 0 0 .053-.09h-.106.106z"/><path d="M14.04 138.237c-.008-.008-.055-.14-.324-.145-.038-.003-.062.008-.138.003-.045.003-.027-.048-.01-.067.03-.02-.104-.01-.15-.005-.045-.003-.076-.01-.102-.015-.08-.008-.128-.063-.07-.097.025-.023.126.004.163 0 .036-.012.03-.073-.005-.078-.05-.007-.273-.023-.255-.048-.034-.055-.024-.084.064-.073.05.03.048-.007.036-.03-.015-.04-.096-.047-.098-.083-.013-.087.045-.098.08-.084.015-.012-.066-.08.025-.112.023-.006.07 0 .086.08.047.016.014-.053.08-.08.054-.023-.005.243.06.24.058.023.047-.145.095-.112.103-.026.053.322.098.3.074.065.082-.056.104-.043.036 0 .06.002.04.082-.015.062.007.077.02.102.07.15.173.148.208.217.01.102-.008.036-.01.05z" fill="#008D00"/><path fill="#009400" d="M15.325 138.468c-.128.103-.262.17-.31.278.058-.008.08-.017.124-.012.047-.104.196-.16.283-.243l-.098-.022zM15.67 138.48c.115.104.26.164.31.275-.06-.007-.083-.015-.118-.006-.047-.105-.203-.166-.29-.25l.097-.02z"/><path fill="#FFF" d="M15.58 138.5a.9.9 0 0 1 .285.25.36.36 0 0 0-.122.032c-.104-.134-.185-.18-.273-.265.032-.008.08-.01.11-.016z"/><path d="M14.252 134.022c-.056.015-.08.062-.086.105-.207.142-.056.423.136.365-.142-.21 0-.327.16-.254.047.034.08.106.085.102.03-.064.15-.12.15-.12s.096.013.113-.048c.01-.04.1-.2.1-.2l-.31-.062-.212-.005-.113.05c-.015.023-.008.043-.023.067z" fill="#FFBA00"/><path fill="#D40000" d="M15.466 138.507a.98.98 0 0 1 .292.266c-.038.01-.05.073-.072.085a1.418 1.418 0 0 0-.298-.36c.033-.01.046.017.078.01z"/><path fill="#FFF" d="M15.413 138.49a.855.855 0 0 0-.276.242.31.31 0 0 1 .114.04c.106-.133.187-.18.275-.264-.033-.008-.08-.01-.112-.017z"/><path fill="#D40000" d="M15.528 138.498c-.14.082-.2.165-.287.27.07.05.054.053.07.08.066-.133.215-.243.333-.357-.033-.007-.082.016-.115.008z"/><path fill="#973000" d="M13.95 137.22c.018-.06-.047-.133-.147-.166-.1-.032-.197-.01-.216.048-.013.038.01.085.06.122.05.038.12.06.18.06.064 0 .11-.025.122-.064l-.182-.06.18.06z"/><path fill="#008D2B" d="M15.3 138.324c-.102.072-.246.167-.347.238-.02.018.07.036.104.02.107-.072.163-.12.27-.19l.06-.035c-.042-.003-.044-.03-.088-.033z"/><path fill="#973000" d="M14.567 137.866c-.02-.05-.104-.064-.19-.03-.084.033-.137.1-.118.15.012.033.053.052.107.05a.268.268 0 0 0 .154-.06c.043-.036.06-.078.047-.11l-.154.06.154-.06z"/><path d="M16.334 137.224c.006-.273.25-.034.346-.146.225-.26.244-.28.443-.252.534.205-.023.68-.568.464-.06-.032-.16-.034-.22-.066z" fill="#008D00"/><g fill="#6D390B"><path d="M18.346 136.326c.01-.03-.015-.063-.053-.074-.038-.01-.075.005-.084.035-.006.02 0 .04.02.057a.087.087 0 0 0 .068.02c.025-.004.043-.02.048-.038l-.068-.02.068.02z"/><path d="M18.344 136.316l.13.113-.066.075-.13-.113z"/></g><path fill="#6D390B" d="M17.54 136.715l.03.04.097-.085-.03-.038-.096.083z"/><path d="M15.086 137.386c.165.05.287.64.45.692M15.244 137.383c.166.05.284.638.446.69M15.4 137.376c.165.05.287.642.45.695"/><path fill="#973000" d="M16.986 137.455c-.02-.05-.104-.063-.19-.03-.084.033-.137.1-.117.15.01.034.052.052.106.05a.268.268 0 0 0 .155-.06c.042-.036.06-.077.046-.11l-.154.06.154-.06z"/><path fill="#DC0000" d="M17.618 136.85c.01.032-.006.073-.062.087-.057.014-.11-.007-.118-.04-.008-.03.024-.076.08-.09.057-.014.092.012.1.043z"/><path fill="#008D00" d="M15.132 138.358c-.083.016-.274.057-.358.22-.015.03-.14.055-.123.002.02-.028.027-.03.047-.058-.002-.035-.083-.025-.077.006a.108.108 0 0 0-.064.025c-.05.062-.136.06-.133-.007a.182.182 0 0 0 .064-.078c.01-.037-.063-.05-.086-.023-.05.026-.08.062-.14.09-.066.024-.13-.018-.072-.05.052-.026.01-.083-.016-.085-.044-.01-.222.02-.254 0-.026-.002-.07-.066-.018-.078.05-.016.13.017.15-.076.022-.157.277.08.236.015-.094-.134.065-.166.113-.074.02.042.116.103.144.092.053.005-.098-.13.02-.153.03.005.077.007.11.053.026.024.03.12.125.13.02-.03 0-.016-.02-.056 0-.05.084-.046.12.038.035.063.22.02.39.024.055-.01.142.038-.158.044z"/><path fill="#DC0000" d="M17.43 136.844c.03.045.03.117-.05.168-.082.05-.176.045-.206 0s-.003-.132.078-.184c.08-.05.15-.028.18.016z"/><path fill="#DC0000" d="M17.488 136.658c.028.018.046.057.015.105-.032.048-.085.068-.113.05-.028-.017-.036-.072-.004-.12.03-.048.074-.052.102-.035z"/><path fill="#DC0000" d="M17.573 136.74c.018.027.018.07-.03.1-.05.033-.107.03-.125.002-.018-.028-.002-.08.047-.112.05-.03.09-.017.108.01z"/><path fill="#D90000" d="M17.755 136.58c.014.02.014.052-.023.075-.037.024-.08.02-.094 0-.013-.02 0-.06.036-.084.037-.022.068-.012.08.01z"/><path fill="#FFF" d="M15.43 138.232c-.07.01-.112.013-.126.064a.347.347 0 0 0 .004.12c0 .043.058.073.125.085h.115c.05 0 .138-.045.138-.09.008-.025.007-.066.007-.093 0-.075-.054-.08-.12-.087l-.142.002z"/><path fill="#008F00" d="M17.99 137.346c-.01-.26-.08-.638.248-.767.042-.012.057.01.043.045l-.29.72z"/><path d="M18.41 136.816c.06-.108.203-.134.254-.13-.1.1-.2.345-.257.426-.08.136-.318.233-.46.314.16-.212.305-.4.464-.61z" fill="#008C00"/><path fill="#009400" d="M15.437 138.23l-.074.013c-.002 0-.056.035-.056.035l-.01.07.012.076.032.045.088.03.007-.27z"/><path d="M17.946 137.425c.01-.01.187-.828.483-.925.047.06.024.193.004.264-.09.305-.31.515-.488.66z" fill="#008D00"/><g fill="#6D390B"><path d="M18.577 136.448c-.025.02-.026.06-.002.09.024.032.064.04.09.022.015-.012.02-.034.016-.058a.087.087 0 0 0-.043-.056c-.02-.012-.044-.01-.06.002l.043.056-.043-.056z"/><path d="M18.573 136.457l-.038-.168.098-.023.037.168z"/></g><g fill="#6D390B"><path d="M17.878 137.256c.02-.027.01-.07-.025-.095-.034-.023-.078-.02-.098.006-.013.018-.014.043-.002.066a.09.09 0 0 0 .062.046c.026.005.05-.004.063-.022l-.062-.045.062.046z"/><path d="M17.877 137.245l.088.162-.088.048-.088-.162z"/></g><g fill="#6D390B"><path d="M18.09 137.482c.012.032.055.044.093.028.04-.016.06-.055.046-.087-.01-.02-.03-.034-.057-.035a.09.09 0 0 0-.07.03c-.017.02-.023.044-.014.064l.07-.03-.07.03z"/><path d="M18.1 137.487l-.185-.007.004-.1.183.007z"/></g><path fill="#008C00" d="M17.818 137.67c.18-.097.068.038.056.112-.053.183-.104.184-.167.215-.094.084-.396.044-.536.078.177-.125.472-.28.648-.406zM17.546 137.627c.076-.06.088-.19.083-.234-.07.096-.246.202-.302.257-.097.082-.156.3-.208.43.148-.154.278-.297.426-.453zM16.6 138.375c.12-.034.322.05.355.09-.143 0-.375.097-.474.114-.155.037-.59-.202-.745-.237.26-.012.6.068.866.032z"/><path fill="#00602B" d="M15.696 138.35l.347.238c.02.018-.07.036-.104.02-.108-.072-.164-.12-.27-.19l-.063-.035c.044-.003.046-.03.09-.033z"/><path d="M17.105 138.075c.012-.004.496-.644.797-.617.018.07-.055.175-.1.23-.203.228-.482.327-.697.387z" fill="#008C00"/><g fill="#6D390B"><path d="M17.046 137.982c.03-.015.04-.057.022-.095-.018-.038-.058-.057-.088-.042-.02.01-.033.03-.033.058a.09.09 0 0 0 .033.068c.02.018.046.022.066.012l-.033-.068.033.068z"/><path d="M17.05 137.972l.002.184h-.1l-.002-.183z"/></g><g fill="#6D390B"><path d="M17.17 138.244c-.003.034.027.066.07.072.04.005.078-.018.082-.052.003-.022-.008-.044-.03-.058a.09.09 0 0 0-.076-.01c-.025.007-.042.026-.045.048l.077.01-.076-.01z"/><path d="M17.178 138.253l-.155-.1.054-.083.155.1z"/></g><path fill="#DC0000" d="M13.068 135.92c.014-.02.047-.033.087-.01.04.02.058.06.044.08-.015.022-.06.028-.102.006-.04-.022-.044-.054-.03-.075z"/><path fill="#008C00" d="M16.518 138.29c.2-.053.188-.147.28-.23a.777.777 0 0 0-.48.095c-.145.092-.183.192-.31.26.216-.027.313-.057.51-.126z"/><path fill="#008C00" d="M15.866 138.346c.572.043.48-.184 1.107-.18-.01.073-.13.163-.19.197-.274.142-.724.208-.917-.017z"/><path fill="#D40000" d="M15.576 138.23l.002.263.073-.028s.032-.047.032-.05l.013-.066-.007-.077-.056-.036-.056-.008z"/><path fill="#6D390B" d="M13.175 135.835l-.09-.1.073-.068.09.1z"/><path fill="#DC0000" d="M13.082 135.843c.016-.026.05-.043.096-.015.044.03.063.078.048.105-.016.026-.066.034-.11.006-.045-.03-.05-.07-.034-.097zM13.334 135.733c.026 0 .054.024.053.075-.002.05-.03.09-.056.09-.025-.002-.053-.04-.05-.092 0-.05.028-.074.054-.073z"/><path fill="#DC0000" d="M13.206 135.754c.03-.008.068.005.082.056.013.05-.006.098-.036.106-.03.008-.072-.022-.086-.073-.014-.05.01-.082.04-.09z"/><path d="M13.942 136.57c-.09-.222-.332-.59-.58-.413-.275.232.125.597.467.577.036-.055.074-.11.112-.165z" fill="#008D00"/><path fill="#DC0000" d="M13.235 135.92c.047-.032.123-.033.18.05.057.08.052.177.004.208-.048.03-.143.006-.2-.076-.056-.08-.033-.15.015-.183zM13.06 135.55c.02-.015.055-.016.08.02.027.04.024.083.003.097-.022.014-.065.002-.09-.035-.027-.037-.016-.07.006-.083z"/><path d="M14.698 136.833c-.112-.195-.417-.438-.728-.282-.368.253.148.632.677.445.047-.048.004-.114.05-.162z" fill="#008D00"/><path d="M15.736 136.95c-.112-.196-.712-.418-.973-.23-.328.358.153.61.8.43.046-.047.125-.153.173-.2z" fill="#008D00"/><path d="M13.406 136.22c.004 0 .1.08.1.08l-.005-.11M13.518 136.374l.1.1M13.755 136.33l.013.1.087-.004M13.784 136.628a1.81 1.81 0 0 1-.1-.1M13.608 136.66l-.1-.1M13.442 136.493l-.1-.1M13.29 136.37h-.1M13.61 136.138v-.1M13.483 136.694c-.01 0-.135-.06-.135-.06M13.71 136.725l-.1.1M13.85 136.45c.005-.01.1-.1.1-.1M13.707 136.283c0-.003-.1-.103-.1-.103M15.43 138.23c-.073.01-.114.013-.128.064a.347.347 0 0 0 .005.12c.013.064.057.073.124.086h.116c.05 0 .128-.03.14-.09.01-.03.006-.067.006-.095-.007-.07-.054-.08-.122-.086h-.14zM15.456 138.23l-.02.262M15.596 138.23l-.02.262"/><path fill="#008C00" d="M18.468 135.993c.042-.136-.104-.17-.137-.245-.065.128-.042.258-.03.327.027.11.128.188.145.282.03-.14.024-.226.023-.364zM18.662 135.866c.002-.074.102-.127.142-.14-.025.146.02.214.008.273-.01.096-.19.244-.268.326.04-.16.078-.3.118-.46z"/><path fill="#008C00" d="M18.453 136.447c.004-.01-.076-.692.125-.834.053.03.07.128.074.182.01.235.02.355-.2.652z"/><path fill="#DC0000" d="M14.418 136.43c.057.018.108.08.077.18-.03.1-.08.164-.155.14-.1-.02-.116-.11-.085-.21.03-.1.105-.128.163-.11zM14.515 136.328c.018.013.03.04.007.07-.023.03-.06.04-.077.027-.02-.013-.022-.05 0-.08s.052-.03.07-.017z"/><path fill="#DC0000" d="M14.366 136.298c.023-.005.053.005.06.042.008.036-.01.07-.034.074-.023.004-.055-.018-.063-.054-.008-.036.013-.058.036-.062z"/><path fill="#DC0000" d="M14.43 136.377c.02.006.04.028.03.063-.013.035-.045.056-.068.05-.022-.006-.037-.04-.025-.075.012-.035.04-.044.062-.038zM14.47 136.25c.023.007.043.025.03.056-.01.03-.044.048-.066.043-.022-.007-.038-.035-.026-.066.012-.03.04-.038.063-.033zM14.552 136.41c.02.015.03.04.005.066-.026.026-.066.032-.086.02-.018-.015-.02-.05.005-.074.025-.026.057-.024.077-.01z"/><path fill="#DC0000" d="M14.313 136.356c.024-.002.052.01.056.043.003.033-.02.062-.043.065-.024.002-.053-.02-.057-.054-.004-.033.02-.05.043-.054z"/><path d="M14.008 138.144v-.03.03c0-.01 0-.02 0 0z"/><path fill="#FFF" d="M16.592 136.806c.112.06.073.196-.007.232-.004-.09-.063-.117-.15-.138.045-.025.095-.106.157-.094z"/><path d="M15.52 137.354c.042-.595.504-.668.81-.564.45.318-.006.583-.677.6-.06-.032-.072-.004-.132-.036z" fill="#008D00"/><path fill="#FFF" d="M15.655 136.685c-.143-.005-.187.132-.13.203.057-.075.13-.07.227-.043-.03-.045-.03-.14-.097-.16zM15.73 136.863c-.112.06-.088.196-.008.232.004-.09.063-.117.15-.138-.046-.025-.08-.106-.142-.094z"/><path d="M16.606 136.818a.1.1 0 0 0-.084-.1c-.056-.005-.11.032-.165-.007a1.45 1.45 0 0 1-.174-.164c-.037-.02-.115-.058-.115-.058-.046.06-.078.126-.144.165-.033.013-.046.028-.106.023-.062-.028-.13-.043-.166-.012.03.06.022.133.01.19.02.012.046-.003.073.003.083.002.062.09.093.127.087.023.132-.018.145-.088.023-.035.093-.04.144-.054.054-.01.122-.027.172 0 .04.022.068.048.09.092 0 0 .065.005.13-.007.003-.038-.006-.11.096-.11z" fill="#F6AA00"/><path d="M16.026 136.55c0 .047.002.094.003.14.016.052.133.047.147.013l-.003-.16M16.065 136.874c.073-.01.1-.1.1-.1M16.167 136.875l.06-.1M16.352 136.872l-.09-.1M16.053 136.834c-.01.004-.13-.11-.093-.1M15.93 136.894c.01 0-.12-.107-.096-.1M15.835 136.774c-.02-.02-.054-.115.08-.097M16.02 136.69c-.138.114-.267.066-.286.163M16.358 136.818c.04-.015.18-.1.034-.1M14.16 136.842c0-.004.104-.016.104-.016l-.095-.084M14.782 136.91l.104-.01-.08-.092M15.034 136.942c-.005-.02.108.003.104-.013l-.07-.088M14.9 136.577c.005 0 .1.078.1.078l-.005-.11M16.83 137.1c.002.002-.002.112-.002.112l.1-.078M16.008 137.072a1.43 1.43 0 0 1-.013.102l.11-.057M14.085 136.563l.1.1M13.962 136.672l.1.1M14.42 136.913l.1-.078M14.27 136.99l.1-.062M14.957 136.724l.1.1M15.237 136.758l.1.1M14.715 136.638l.1.1M14.008 136.43l.1.1M14.76 137.26l.1-.1M15.075 137.318l.1-.1M13.865 137l.1-.08M14.046 136.896c-.017 0 .05-.007.07.004l-.1-.1M14.162 137.13l.1-.08M15.286 137.025l.1-.063M15.125 137.155l.1-.062M15.24 136.62c.004 0 .1.08.1.08l-.005-.11M16.195 136.902l-.1.1M16.416 136.974l-.1.1M16.318 137.16l-.1.1M17.11 137.176l-.1.1M16.693 137.128l-.1.1M17.102 136.734l-.1.1M17.393 137.254l-.1-.084M16.593 137.393l.042-.1M16.893 136.984l.1-.1M17.043 137.074l.1-.1M17.17 137.31c-.003.004-.106-.002-.106-.002l.074.1M15.745 137.28a1.43 1.43 0 0 1-.012.103l.11-.057M14.9 137.134c.018-.014.106-.044.1-.064l-.092-.036"/><path d="M17.758 136.472c.045.034.12-.35.108-.47 0-.01-.014-.264.04-.446.035-.062.036-.52-.015-.642.042-.003.092-.017.098-.066-.19.07-.235-.393-.418-.66-.18-.265-.4-.42-.63-.582a.482.482 0 0 1 .08-.13c-.284.14-.725-.363-1.375-.326-.147.014-.216.023-.253.11-.12.01-.245.037-.245.194 0 .037.035.105.113.106.106.03.193.007.265.152.005.04.013.11.02.15 0 0-.097-.118-.15-.138.015-.02-.007-.033.033-.063-.05-.027-.136-.004-.136-.004s-.19-.087-.34-.064c0-.016-.03-.12-.03-.12-.027.073-.086.07-.095.14l-.054-.163c-.054.07-.038.147-.057.222-.02.016-.064.017-.074-.03-.006-.06-.013-.065-.013-.134-.04.066-.085.098-.1.21-.017-.04-.026-.082-.042-.124.002.148-.128.236-.25.34-.036.063.004.064.007.095l.065.03c.038 0 .078-.004.116-.007.02.024.004.025.054.04.136.038.305-.12.438.13-.06.05-.123.166-.103.188.024 0-.05.035.05.004a.855.855 0 0 0-.174.235c-.01.027.043-.004.032.046.014-.038.024-.003.024-.003-.235.25-.007.517-.033.662.04.062.044 0 .093-.008.042.177.16.284.233.425a.284.284 0 0 0-.154 0c.004.068.065.13.114.19l-.103.03a.57.57 0 0 0-.173.133c-.034.08.164.1.26.114-.01.028-.022.065-.005.097.148.014.32-.03.32-.037 0-.008.038-.03.038-.03.02.04.064.052.084.047.028 0 .072-.11.052-.195.054.064.105.165.16.23.016.016.037.003.05-.008.046.07.11.143.156.215.024.026.02.016.052.018.03-.01.056-.014.07-.07 0 0 .01.008.026.04.036.025.062-.036.082-.056.01-.027.056.006.056-.01.016.01.027.057.043.068.024-.01.05-.063.05-.12.025.05.033.046.052.06.016-.014.02-.066.037-.08-.004-.027.194.188.202.188.02.014.132.048.155.01.056.035.207.058.23 0 .125.05.27-.007.265-.065.113.044.29.014.29.007.02-.003.075-.055.023-.094-.376-.257-.936-.683-1.152-.785 0-.075-.058-.35-.12-.424-.013-.04.013-.087.05-.084.147.134.2.12.277.142.084.065.114.164.198.254.04.013.086.052.074.014a1.247 1.247 0 0 0-.272-.42c.08.04.214.144.304.22.06.097.077.174.13.296.04.024.08.114.074.04-.008-.14-.11-.363-.11-.38.16.126.16.32.207.437.042.06.063.14.08.12.02-.026-.047-.363-.047-.363-.01-.043-.017-.09-.027-.133.12.066.16.32.216.627 0 .048.02.102.018.134.026.03.055.116.054.066 0 0 0-.498-.035-.612-.008-.06.015-.16.015-.16l.133.636v.152c.023.02.045.042.066.063l.04-.374-.048-.444v-.127c0-.046.04-.037.07.014.004.108.004.194.01.303.018.125.03.215.042.374.005.13.01.437.038.432z" fill="#9C4314"/><path d="M15.69 137.212c-.01-.018-.015-.1-.037-.1l-.062.075M16.91 136.837l-.076.1M16.268 137.324c-.02.003-.096-.02-.1.002l.055.09M15.26 135.85v.007-.007.007-.007V135.97c.003.017.003.036.003.055.003.015.01.032.017.048 0 .02.008.034.016.052a.14.14 0 0 0 .017.048c.002.017.01.026.012.04a.15.15 0 0 0 .02.04c.007.003.01.007.014.01"/><path d="M14.986 136.272c0-.005 0-.022.007-.034a.355.355 0 0 1 .038-.045c.02-.012.034-.026.05-.04.018-.012.026-.02.042-.032.01-.008.02-.013.032-.02.012-.005.02-.014.038-.016.01-.006.033-.004.05-.004.016 0 .022-.003.038-.003M17.53 135.08c.055.04.115.123.14.274M17.227 135.133c.078.07.122.143.18.312"/><path fill="#00C600" d="M17.037 135.215c.048.053.077.11.103.176M16.712 135.04c.062.07.163.178.214.286"/><path d="M15.39 133.247c.005.305.46.23.5.518.087.313.05.515-.077.615-.073.073-.017.187.005.245.118.295.297.342.375.596"/><path d="M15.22 133.516c0-.015.01-.04.02-.053.046-.037.074-.04.12-.047a.31.31 0 0 1 .118.02M15.81 136.26l.16.252M16.317 135.883l.85.637M16.294 136.058l.62.534M15.125 135.395c.082.16.313.37.452.404a.632.632 0 0 0-.018-.213"/><path d="M15.39 135.305c.08.16.155.328.372.425.022-.155-.026-.365-.146-.578"/><path d="M15.427 135.092a.502.502 0 0 0 .192.07c.02-.155.04-.318-.088-.54"/><path d="M15.14 135.183c.11.117.2.123.25.13.035-.107.05-.33.006-.572M14.854 135.277c.11.14.363.403.5.5.004-.023.01-.033.01-.104M16.73 133.75c.116.132.57.58.66.788.155.342.44.407.512.368M15.95 135.596c.042.163.116.46.223.508.018-.018.034-.05.032-.12"/><path d="M15.335 134.67c.048.047.058.09.108.097.06-.05.168-.32.13-.52"/><path d="M15.083 134.662c.022.107.043.198.12.2.13-.107.17-.344.13-.543M15.075 135.23l-.1-.124M16.29 136.245l.39.347M16.103 136.106l.12.33M15.573 135.802c.082.16.257.39.395.422.005-.022.002-.04 0-.112M15.362 135.77c.082.16.323.418.46.494.006-.022.026-.026.024-.097M15.96 136.218l.175.282M15.753 135.51c.075.044.153.08.203.087a1.34 1.34 0 0 0-.18-.662"/><path d="M14.89 134.608c-.023.082-.02.17.058.17.216-.09.087-.18.272-.49M15.174 134.05c.082.158.106.266.233.307.025-.01.09-.292-.126-.52"/><path d="M15.436 134.182c.042.047.104.06.153.056.048-.095-.056-.365-.193-.505M16.64 133.96c.104.143.555.637.748.795.043-.006.107.047.047-.132"/><path d="M16.59 134.274c.103.14.29.38.484.54.05.016.096.01.11-.002.018-.015.003-.127.007-.242"/><path d="M16.468 134.452c.118.127.273.273.463.442.05.018.092.02.097 0 .005-.018.014-.014.003-.128"/><path d="M16.304 134.68c.118.127.225.22.332.244.05.006.08.006.084-.012.005-.02.002-.108 0-.21"/><path d="M16.137 134.85c.118.126.118.18.225.202.05.006.09 0 .1-.018.015-.036.02-.075.02-.177M16.09 134.02c.118.02.128-.08.118-.15-.01-.09-.076-.13-.153-.11M16.024 134.417c.056.02.126.02.15-.043.022-.047.014-.164-.063-.145"/><path d="M16.107 134.227c.107.007.117-.04.113-.1-.004-.07-.053-.125-.13-.106M16.21 133.955c.157-.092.605.276.264.393M16.178 134.215c.156-.092.498.208.15.325M16.12 134.422c.173.006.373.28.033.312M15.915 134.568c.056.02.088.035.138-.007a.096.096 0 0 0-.028-.143M14.46 134.26c.06-.095.203-.155.252-.03M16.02 134.58c.1.034.262.31-.008.337M15.89 133.334c.118.022.176.207.27.22.17.026-.023-.192-.06-.216M14.17 134.155c.053.003.102-.01.135-.1M14.69 134.653c.028.053.103.03.165-.005.084-.048.013-.214.214-.356M14.796 135.352c.11.14.318.347.448.46.005-.023.026-.035.024-.105M15.24 135.8l.25.34M15.76 135.72c.04.163.204.422.31.47.02-.02.03-.09.03-.16M15.787 136.187l-.1.152M16.076 135.43c.04.163.102.56.196.633.02-.017.057-.348.055-.42M15.95 135.418a.894.894 0 0 0 .13.006c.01-.172-.067-.374-.193-.586"/><path fill="#00C600" d="M16.33 134.994l-.08.174"/><path d="M15.632 134.92c.06.022.1.03.148.025.048-.232-.074-.233-.225-.397M16.307 133.372c.117.022.043.193.202.246.132.043.057-.137.02-.16M16.134 133.756c.084-.06.385.023.487.107.03.026.075.133-.064.23M14.54 133.897c.24-.23.353-.205.63-.035.04.01.083.002.108-.013.014-.034 0-.068-.017-.094-.123-.087-.215-.112-.332-.096M14.887 134.753a.45.45 0 0 0-.007.44c.004.02.027.043.004.058-.046.023-.066.06-.09.096M16.295 135.966c.002-.288-.04-.517-.158-.725"/><path d="M15.788 134.846c.038-.004.087.006.11-.005.012-.04-.02-.093-.034-.132.023-.003.05-.003.067-.008.01-.036 0-.087 0-.13"/><path fill="#FFF" d="M14.336 134.027c.01-.064.068-.135.133-.17.03-.02.052.002.066.01.017.026.007.078 0 .098-.018.035-.053.062-.116.086-.032-.013-.05-.01-.084-.023z"/><path d="M14.897 135.247c.014.007.154.158.154.158h.085l.007-.23M15.207 134.805c-.162.09-.1.18 0 .27M14.942 135.23l.1-.124M15.06 134.757c-.1.076-.127.2-.076.29M16.167 135.26l-.1.013"/><path fill="#9F3000" d="M13.308 134.967c.01.034-.027.016-.035.025-.04.014-.1-.033-.14-.148.02-.032.132-.1.168-.085 0 0 .072.025.08.054-.013.043-.075.158-.072.153z"/><path d="M16.146 135.26l.012-.154M16.275 136.06l.1.374"/><path d="M13.305 134.98c.077.07.198.023.217.196.008.097-.132.29 0 .464.046.068.167.14.167.14.062.07.08.192.122.287.087.127.207.155.302.124 0 0 .313-.136.313-.14 0 0-.16-.208-.16-.205 0 .002-.178.147-.18.147-.02-.003-.124.008-.162-.12-.003-.165-.086-.256-.22-.323-.067-.05-.12-.13-.063-.242.034-.102.068-.274-.052-.39-.076-.05-.13-.09-.214-.104-.108.04-.107.03-.07.166z" fill="#238700"/><path d="M14.915 133.543c-.118.075-.107.12-.088.196M14.637 133.914h.004.095c.027 0 .038-.01.057-.024a.3.3 0 0 0 .038-.028.18.18 0 0 1 .035-.02c.02 0 .035 0 .053.007.015.005.028.015.042.023a.114.114 0 0 0 .045.007c.02 0 .044 0 .063.003.02 0 .04.005.053.01.018.01.028.023.04.035 0 .018.006.03.006.048 0 .016.002.037-.003.048 0 .02-.004.033-.007.048-.013.01-.018.02-.035.024-.013.01-.034.01-.055.01h-.056c-.014-.01-.028-.02-.043-.034-.01-.02-.014-.025-.032-.03a.356.356 0 0 0-.052-.005c-.018 0-.032 0-.042-.007a.083.083 0 0 0-.038-.017c-.016-.004-.035-.003-.052-.003h-.028"/><path d="M14.73 133.948c0 .005 0 .01.002.016-.008-.036-.005-.02.014.016.023.024.048.044.074.047.024 0 .046.014.07.016.016 0 .034.006.05-.016M14.966 133.89h-.006c.02 0 .007 0-.02.017-.002.02-.01.03.007.048.02.004.056.012.07.02.02.008.02.016.02.035l-.04.034a.394.394 0 0 0-.025.038.117.117 0 0 0-.012.048v.034M16.22 133.49c.004.008.07.14.155.056.012-.014.016-.024.016-.05a.14.14 0 0 0-.004-.036"/><path fill="#FFF" d="M14.2 136.13c.04.055.113.027.128-.017-.05.003-.07-.026-.087-.07-.01.025-.052.056-.04.087z"/><path d="M16.574 133.616c0 .004.07.08.18.08.025 0 .148-.037.188-.1"/><path d="M16.723 133.675a.67.67 0 0 1 .005.073c0 .026.006.048-.004.07a.072.072 0 0 1-.05.05c-.022.01-.027 0-.05 0M16.13 133.542c0 .002.077.178.102.196"/><path fill="#FFF" d="M14.25 136.098c.04.055.113.027.127-.017-.05.004-.07-.025-.087-.07-.01.026-.052.056-.04.088z"/><path fill="#FFF" d="M14.326 136.066c.04.055.113.027.128-.018-.05.004-.07-.025-.087-.07-.01.026-.053.056-.04.088z"/><path d="M15.698 133.452h.005.02c.08-.015.343.04.39.098M15.805 134.703c-.008-.002.017.03.01.028.047.01-.008-.025-.034-.047-.04-.02-.047-.032-.047-.058v-.02M15.254 135.844v.007-.006.007-.027.14c.004.018.004.037.004.056.002.013.008.03.016.047 0 .02.008.034.016.05.002.02.01.034.016.05.002.017.01.026.012.04a.15.15 0 0 0 .02.038c.006.005.01.028.016.03"/><path d="M15.04 135.642v.091c.005.023.006.047.01.07l.01.054a.59.59 0 0 0 .033.1c.008.014.02.03.028.04.015.005.026.01.043.01h.05c.018-.003.025-.005.034-.02.004-.01.004-.016.01-.02M14.98 136.266c0-.006 0-.023.008-.035a.354.354 0 0 1 .038-.043c.02-.012.067-.076.21-.113.017 0 .023-.003.04-.004M14.998 135.955c0 .002.078.096.118.1M15.25 136.087h-.036.036c-.012 0-.024 0 0 0z"/><path fill="#FFBC00" d="M15.184 136.084c-.012-.008-.383-.113-.375-.113.006 0-.137.097-.137.097l.354.118.14-.1h.017z"/><path fill="#F7B200" d="M14.83 135.968a.143.143 0 0 0-.06-.182c-.176-.106-.47-.097-.525.026-.06-.008-.092.04-.1.088-.157.04-.012.218.026.225.054.017.068.004.077-.012.03.007.07-.024.08-.045.037.007.065.006.065-.03.107.097.253.165.27.04l.167-.11z"/><path d="M14.145 135.897c-.01.068.036.14.11.212M14.242 135.812a.29.29 0 0 0 .097.254M14.36 135.74c-.085.055-.038.228.056.298"/><path d="M14.533 134.326c.157.204-.062.428-.254.557-.227.174-.35.513.05.534.143-.002.3-.015.387.095.088.11.092.314-.13.445-.02-.02-.054-.075-.078-.092-.025-.017-.04.005-.062-.014-.008-.07.11-.173-.002-.198-.142.024-.643.026-.636-.44a.713.713 0 0 1 .16-.34c.09-.12.34-.268.364-.332.04-.056-.032-.164-.088-.18-.046-.12.157-.247.287-.034z" fill="#288800"/><path d="M14.185 134.686l.05.273M14.04 134.795l.297.1M14.258 134.625l.252.1M13.993 134.842l.21.122M13.844 135.1l.163.17M13.995 134.853l.1.403M13.882 135.022l.27.05M13.6 135.702a.548.548 0 0 0 .113-.148M13.685 135.796a.553.553 0 0 1 .2-.1M13.788 136.006c.05-.04.102-.082.137-.138M13.79 136.09a.538.538 0 0 0 .258-.1M13.943 136.184a.656.656 0 0 0 .17-.1M13.5 135.618c.05-.04.098-.084.14-.13M13.463 135.526a.614.614 0 0 0 .152-.1M13.482 135.436a.226.226 0 0 1 .14-.1M13.522 135.253c.053-.03.088-.012.14.086M13.53 135.232c.045-.07.094-.115.143-.096M13.51 135.108l.15-.1M13.483 135.066l.13-.125M13.446 135.05l.1-.16M13.833 134.113l-.01.226M14.057 134.15a.76.76 0 0 1-.143.198M13.885 134.106c-.068-.007-.132.042-.183.1"/><path fill-opacity=".994" fill="#9D4600" d="M14.245 134.278c.113.04.262.096.246.42.095-.1.137-.238.02-.413-.08-.084-.197-.1-.265-.007z"/><path d="M14.296 134.386c.005-.063.094-.14.14-.158M14.33 134.442c.024-.08.126-.143.173-.16M14.333 134.556a.55.55 0 0 0 .246-.142M14.346 134.496c.053-.036.153-.118.2-.135M14.492 134.603c.04-.038.056-.03.1-.1M14.245 134.28c.113.036.252.117.243.417M13.87 135.44l.153-.184M13.888 135.477h.137M13.81 135.294l.194.107"/><path d="M14.07 135.275a.313.313 0 0 1-.09-.02c.015.24.04.254.08.345.116.073.32.056.405.038.01.013.06.074.03.092-.035.02-.05.06-.05.125.02.022.04.003.06.017a.32.32 0 0 1 .064.107s.248-.168.208-.326a.274.274 0 0 0-.13-.2c-.144-.07-.347-.023-.422-.05-.092-.02-.15-.098-.156-.13z" fill="#9D4600"/><path d="M14.48 135.747a.41.41 0 0 1 .293-.097M13.993 135.43c.027-.03.067-.1.112-.1M14.222 135.647a.426.426 0 0 1 .108-.237M14.297 135.657a.442.442 0 0 1 .113-.242M14.38 135.648c.023-.128.08-.212.108-.233M14.444 135.638a.33.33 0 0 1 .124-.213M14.486 135.675c.022-.13.133-.2.162-.222M14.49 135.695c.075-.107.2-.16.236-.167M14.144 135.63c.022-.13.08-.2.11-.22M14.07 135.607a.336.336 0 0 1 .118-.216M14.458 135.87c.06-.045.1.102.102.12.003.017.014.036.043.052M14.023 135.518a.426.426 0 0 1 .105-.158"/><path fill="#FFF" d="M14.346 135.745c-.077.12.01.224.11.182-.01-.082-.032-.135.044-.214-.054.003-.103-.015-.154.032z"/><path d="M14.057 134.87l.1.175M14.128 135.03l-.1.216M14.478 135.75c.135-.107.264 0 .298.054M14.462 135.736a.464.464 0 0 1 .288.1M14.464 135.76c.132.03.192.096.215.124M14.454 135.79c.12.065.146.118.16.152"/><path fill="#296526" d="M12.485 136.42l.097-.023.068.29-.097.023zM13.015 137.395l.135.15.05-.042-.126-.155-.06.047zM17.115 138.035l-.166.114.036.053.17-.107-.04-.06zM17.993 137.318l-.148.136.044.048.153-.128-.05-.056zM18.472 136.356l-.062.13.034.038.066-.124-.038-.044z"/><path d="M14.076 135.614a.626.626 0 0 1-.094-.357c.042.018.076.028.1.022M13.816 134.107c-.06-.146.01-.225.083-.294"/><path fill="#000" d="M13.912 133.787c-.018-.02-.05-.022-.072-.002-.022.02-.025.052-.007.072.02.02.05.022.073.002.022-.02.025-.053.006-.073l-.04.035.04-.035z"/><path d="M13.528 134.95c-.012 0-.227-.1-.227-.1M13.437 135.033c0-.008-.14-.178-.14-.178"/><path fill="#0B7226" d="M3 129h8.363v13.974H3z"/><path fill="#BC0000" d="M19.66 129h8.315v13.974H19.66z"/></g><g><path fill="#00732F" d="M3 152h25v4.333H3z"/><path fill="#FFF" d="M3 156.333h25v4.333H3z"/><path fill="#000" d="M3 160.667h25V165H3z"/><path fill="#F00" d="M3 152h6.25v13H3z"/></g><g><path fill="#029B3A" d="M3 174h25v17H3z"/><g transform="translate(5.174 176.1)"><path fill="#009B3A" d="M10.03 6.132h.592v.577h-.592z"/><path d="M0 6.42l10.326 6.42 10.326-6.42L10.326 0 0 6.42z" fill="#FEDF00"/><ellipse fill="#002776" cx="10.326" cy="6.42" rx="4.354" ry="4.24"/><g transform="translate(5.972 2.18)"><mask id="h" fill="#fff"><use xlink:href="#g"/></mask><path d="M-8.71 12.72c0-5.687 4.736-10.297 10.576-10.297 5.84 0 10.575 4.61 10.575 10.297h-.62c0-5.353-4.457-9.69-9.954-9.69-5.497 0-9.952 4.337-9.952 9.69h-.623z" fill="#FFF" mask="url(#h)"/></g><path d="M7.3 5.12c-.003-.057-.012-.184-.1-.178l-.113.008c.13-.01.14.118.143.175M8.002 5.108l.373.013.003-.074-.302-.01.004-.105.236.01.003-.07-.238-.008.003-.08.284.01.002-.076-.356-.012-.014.404zM8.53 5.13l.07.005.024-.276.058.282.065.006.107-.268-.024.275.07.007.036-.403-.104-.01-.106.27-.06-.284-.102-.01-.035.403zM9.388 5.223l.307.053.012-.068-.237-.04.016-.092.192.033.012-.07-.193-.032.01-.063.23.04.012-.07-.3-.05-.062.358zM11.02 5.61c.02-.054.057-.175-.028-.202l-.107-.033c.124.04.086.16.07.215" fill="#009B3A"/><g transform="rotate(23.5 -7.24 31.19)"><mask id="j" fill="#fff"><use xlink:href="#i"/></mask></g><path fill="#009B3A" d="M11.957 5.746l.144.063-.04.09-.143-.062z"/><path fill="#009B3A" d="M12.047 5.785l.09.04-.08.186-.09-.04zM12.476 6.21c.025-.05.082-.164.002-.204l-.1-.05c.116.058.06.172.034.223M12.63 6.286l.325.183.037-.066-.263-.15.05-.09.206.118.034-.06-.206-.117.04-.07.247.14.038-.066-.31-.176-.198.352zM13.233 6.484c-.02.035.002.073.052.105.05.03.083.03.097.008.044-.07-.217-.174-.138-.295.068-.104.187-.02.232.008.045.03.117.103.063.186l-.078-.05c.024-.035-.003-.07-.043-.096-.04-.025-.07-.036-.093 0-.038.055.218.166.142.286-.058.09-.16.05-.226.006-.058-.037-.144-.123-.09-.208l.08.05zM13.678 6.77c-.023.034-.002.073.046.108.048.034.082.035.097.014.05-.067-.207-.185-.122-.302.073-.1.188-.01.232.02.043.03.112.108.053.188l-.074-.052c.024-.035 0-.072-.04-.1-.036-.027-.067-.04-.09-.006-.042.055.208.178.125.295-.06.085-.16.04-.224-.007-.055-.04-.136-.13-.078-.21l.076.053z"/><g fill="#FFF"><path d="M6.828 5.485l-.056.173.09.028M6.714 5.485l.056.173-.088.028"/><path d="M6.955 5.66h-.182v.093M6.92 5.55l-.148.108-.054-.076"/><path d="M6.623 5.55l.147.108.055-.076M6.588 5.66h.182v.093"/><g><path d="M6.828 5.833L6.77 5.66l-.087.03M6.92 5.766l-.147-.106.055-.076"/></g><g><path d="M6.623 5.766l.147-.106-.055-.076M6.715 5.833l.056-.172.09.03"/></g></g><g fill="#FFF"><path d="M7.213 7.267l-.056.173.09.03M7.1 7.267l.055.173-.088.03"/><path d="M7.34 7.442h-.182v.093M7.304 7.333l-.147.107-.054-.075"/><path d="M7.008 7.333l.147.107.055-.075M6.973 7.442h.182v.093"/><g><path d="M7.213 7.616l-.057-.173-.088.03M7.305 7.55l-.147-.108.055-.075"/></g><g><path d="M7.008 7.55l.147-.108-.055-.075M7.1 7.616l.056-.173.09.03"/></g></g><g fill="#FFF"><path d="M6.67 7.674l-.046.144.074.024M6.575 7.674l.047.144-.074.024"/><path d="M6.78 7.822h-.153V7.9M6.75 7.73l-.124.09-.045-.063"/><path d="M6.498 7.73l.122.09.046-.063M6.468 7.822h.15V7.9"/><g><path d="M6.67 7.97l-.046-.144-.073.024M6.75 7.914l-.124-.09.046-.062"/></g><g><path d="M6.498 7.914l.122-.09-.046-.062M6.575 7.97l.047-.144.074.024"/></g></g><g fill="#FFF"><path d="M7.613 7.09l-.03.096.047.016"/><path d="M7.564 7.09l.03.096-.047.016"/><path d="M7.68 7.183h-.1v.05"/><path d="M7.663 7.135l-.08.06-.03-.04"/><path d="M7.506 7.125l.08.06.03-.042"/><path d="M7.49 7.172h.1v.05"/><g><path d="M7.612 7.273l-.03-.095-.05.016"/><path d="M7.652 7.244l-.08-.06.028-.04"/></g><g><path d="M7.505 7.237l.08-.058-.03-.042"/><path d="M7.545 7.267l.03-.095.05.015"/></g></g><g fill="#FFF"><path d="M8.11 7.715l-.046.144.074.023M8.015 7.715l.047.144-.074.023"/><path d="M8.218 7.863h-.15v.077M8.19 7.77l-.124.09-.046-.063"/><path d="M7.937 7.77l.123.09.045-.063M7.907 7.863h.152v.077"/><g><path d="M8.11 8.01l-.046-.144-.074.024M8.188 7.954l-.122-.09.046-.062"/></g><g><path d="M7.937 7.954l.123-.09-.046-.062M8.015 8.01l.047-.144.073.024"/></g></g><g fill="#FFF"><path d="M7.97 8.162l-.036.116.06.02M7.894 8.162l.037.116-.058.02"/><path d="M8.06 8.283h-.12v.062M8.036 8.21l-.098.07-.037-.05"/><path d="M7.83 8.21l.097.07.037-.05M7.805 8.283h.12v.062"/><g><path d="M7.972 8.405l-.037-.116-.06.02M8.035 8.36l-.098-.072.037-.05"/></g><g><path d="M7.83 8.36l.098-.072-.037-.05M7.893 8.405l.037-.116.06.02"/></g></g><g fill="#FFF"><path d="M11.734 4.93l-.057.174.09.03M11.62 4.93l.056.174-.09.03"/><path d="M11.86 5.106h-.182V5.2M11.825 4.997l-.147.107-.055-.076"/><path d="M11.528 4.997l.147.107.055-.076M11.493 5.106h.182V5.2"/><g><path d="M11.733 5.28l-.056-.173-.09.03M11.825 5.213l-.147-.107.055-.076"/></g><g><path d="M11.528 5.213l.147-.107-.055-.076M11.62 5.28l.056-.173.09.03"/></g></g><g fill="#FFF"><path d="M13.434 7.734l-.056.173.088.03M13.32 7.734l.056.173-.09.03"/><path d="M13.56 7.91h-.182V8M13.525 7.8l-.147.107-.055-.075"/><path d="M13.23 7.8l.146.107.055-.075M13.193 7.91h.182V8"/><g><path d="M13.433 8.083l-.056-.173-.09.03M13.525 8.016l-.147-.107.055-.076"/></g><g><path d="M13.228 8.016l.147-.107-.055-.076M13.32 8.083l.057-.173.088.03"/></g></g><g fill="#FFF"><path d="M14.02 7.828l-.038.115.06.02M13.942 7.828l.038.115-.06.02"/><path d="M14.108 7.95h-.12v.06M14.084 7.875l-.098.07-.036-.05"/><path d="M13.878 7.875l.098.07.036-.05M13.854 7.95h.12v.06"/><g><path d="M14.02 8.07l-.037-.115-.06.02M14.084 8.024l-.098-.07.036-.05"/></g><g><path d="M13.878 8.024l.098-.07-.036-.05M13.94 8.07l.04-.115.058.02"/></g></g><g fill="#FFF"><path d="M13.602 8.136l-.046.144.074.024M13.507 8.136l.046.144-.074.024"/><path d="M13.71 8.284h-.152v.077M13.68 8.192l-.122.09-.046-.064"/><path d="M13.43 8.192l.12.09.047-.064M13.4 8.284h.15v.077"/><g><path d="M13.603 8.43l-.047-.143-.074.024M13.68 8.375l-.122-.09.045-.062"/></g><g><path d="M13.43 8.375l.12-.09-.044-.062M13.506 8.43l.047-.143.074.024"/></g></g><g fill="#FFF"><path d="M12.554 9.024l-.047.144.074.024M12.458 9.024l.047.144-.074.024"/><path d="M12.66 9.172h-.15v.078M12.632 9.08l-.123.09-.047-.063"/><path d="M12.38 9.08l.123.09.045-.063M12.35 9.172h.152v.078"/><g><path d="M12.554 9.32l-.047-.144-.074.024M12.632 9.263l-.123-.09.045-.062"/></g><g><path d="M12.38 9.263l.123-.09-.046-.062M12.458 9.32l.047-.144.074.024"/></g></g><g fill="#FFF"><path d="M12.54 9.478l-.04.115.06.02M12.46 9.478l.04.115-.06.02"/><path d="M12.627 9.598h-.12v.063M12.603 9.524l-.098.072-.036-.05"/><path d="M12.397 9.524l.098.072.036-.05M12.373 9.598h.12v.063"/><g><path d="M12.54 9.72l-.038-.115-.06.02M12.603 9.674l-.098-.07.036-.05"/></g><g><path d="M12.397 9.674l.098-.07-.036-.05M12.46 9.72l.038-.115.06.02"/></g></g><g fill="#FFF"><path d="M12.977 8.716l-.037.115.06.02M12.9 8.716l.037.115-.06.02"/><path d="M13.066 8.837h-.12V8.9M13.042 8.763l-.098.07-.037-.05"/><path d="M12.835 8.763l.098.07.037-.05M12.81 8.837h.122V8.9"/><g><path d="M12.978 8.958l-.037-.115-.058.02M13.04 8.913l-.097-.07.037-.052"/></g><g><path d="M12.836 8.913l.098-.07-.037-.052M12.9 8.958l.036-.115.06.02"/></g></g><g fill="#FFF"><path d="M13.336 8.476l-.047.144.073.024M13.24 8.476l.047.144-.074.024"/><path d="M13.443 8.624h-.15v.078M13.414 8.533l-.123.09-.045-.064"/><path d="M13.162 8.533l.123.09.045-.064M13.133 8.624h.15v.078"/><g><path d="M13.336 8.772l-.047-.144-.075.024M13.414 8.715l-.123-.09.047-.062"/></g><g><path d="M13.162 8.715l.123-.09-.046-.062M13.24 8.772l.047-.144.074.024"/></g></g><g fill="#FFF"><path d="M12.527 8.635l-.037.116.06.02M12.45 8.635l.037.116-.06.02"/><path d="M12.616 8.756h-.122v.062M12.592 8.682l-.098.07-.037-.05"/><path d="M12.385 8.682l.098.07.036-.05M12.36 8.756h.122v.062"/><g><path d="M12.528 8.878l-.037-.116-.06.02M12.59 8.832l-.097-.07.036-.052"/></g><g><path d="M12.385 8.832l.098-.07-.036-.052M12.448 8.878l.038-.116.06.02"/></g></g><g fill="#FFF"><path d="M8.715 6.446l-.047.144.074.024M8.62 6.446l.046.144-.074.024"/><path d="M8.822 6.593h-.15v.078M8.793 6.502l-.123.09-.045-.064"/><path d="M8.54 6.502l.124.09.046-.064M8.512 6.593h.15v.078"/><g><path d="M8.715 6.74l-.047-.143-.074.024M8.793 6.685l-.123-.09.046-.062"/></g><g><path d="M8.54 6.685l.124-.09-.046-.062M8.62 6.74l.046-.143.074.024"/></g></g><g fill="#FFF"><path d="M11.55 6.086l-.038.115.06.02M11.472 6.086l.037.115-.06.02"/><path d="M11.638 6.206h-.12v.063M11.614 6.133l-.098.07-.037-.05"/><path d="M11.407 6.133l.098.07.037-.05M11.383 6.206h.12v.063"/><g><path d="M11.55 6.328l-.037-.115-.06.02M11.613 6.282l-.098-.07.037-.05"/></g><g><path d="M11.408 6.282l.098-.07-.037-.05M11.47 6.328l.038-.115.06.02"/></g></g><g fill="#FFF"><path d="M10.383 8.15l-.056.173.088.028M10.27 8.15l.055.173-.09.028"/><path d="M10.51 8.324h-.183v.094M10.474 8.216l-.147.107-.055-.076"/><path d="M10.178 8.216l.147.107.055-.076M10.142 8.324h.182v.094"/><g><path d="M10.382 8.5l-.056-.174-.09.03M10.474 8.43l-.147-.105.055-.076"/></g><g><path d="M10.177 8.43l.147-.105-.055-.076M10.27 8.5l.056-.174.088.03"/></g></g><g fill="#FFF"><path d="M10.877 7.334l-.046.144.075.024M10.78 7.334l.048.144-.074.024"/><path d="M10.985 7.482h-.152v.078M10.955 7.39l-.122.09-.046-.063"/><path d="M10.704 7.39l.122.09.046-.063M10.674 7.482h.15v.078"/><g><path d="M10.877 7.63l-.046-.144-.073.024M10.955 7.573l-.122-.09.045-.062"/></g><g><path d="M10.704 7.573l.122-.09-.045-.062M10.78 7.63l.048-.144.074.024"/></g></g><g fill="#FFF"><path d="M10.374 6.953l-.047.144.074.024M10.278 6.953l.047.144-.074.024"/><path d="M10.48 7.1h-.15v.08M10.452 7.01l-.123.09-.047-.064"/><path d="M10.2 7.01l.123.09.045-.064M10.17 7.1h.152v.08"/><g><path d="M10.374 7.25l-.047-.145-.074.024M10.45 7.192l-.12-.09.045-.06"/></g><g><path d="M10.2 7.192l.123-.09-.046-.06M10.278 7.25l.047-.145.074.024"/></g></g><g fill="#FFF"><path d="M9.926 7.36l-.037.116.058.02M9.85 7.36l.036.116-.06.02"/><path d="M10.015 7.48h-.12v.064M9.99 7.407l-.097.072-.037-.052"/><path d="M9.784 7.407l.098.072.037-.052M9.76 7.48h.12v.064"/><g><path d="M9.927 7.603l-.037-.115-.06.02M9.99 7.557l-.098-.07.037-.05"/></g><g><path d="M9.785 7.557l.098-.07-.037-.05M9.848 7.603l.037-.115.06.02"/></g></g><g fill="#FFF"><path d="M10.137 7.685l-.03.095.047.016"/><path d="M10.087 7.685l.03.095-.046.016"/><path d="M10.202 7.777h-.1v.05"/><path d="M10.187 7.73l-.08.058-.03-.04"/><path d="M10.03 7.72l.08.058.03-.04"/><path d="M10.014 7.766h.1v.05"/><g><path d="M10.135 7.867l-.03-.095-.048.016"/><path d="M10.176 7.838l-.08-.06.028-.04"/></g><g><path d="M10.03 7.83l.08-.057-.03-.04"/><path d="M10.07 7.86l.03-.094.047.015"/></g></g><g fill="#FFF"><path d="M11.677 9.128l-.047.144.074.024M11.58 9.128l.048.144-.074.024"/><path d="M11.785 9.276h-.152v.078M11.755 9.185l-.123.09-.045-.064"/><path d="M11.503 9.185l.123.09.046-.064M11.474 9.276h.15v.078"/><g><path d="M11.677 9.424l-.047-.144-.074.024M11.755 9.367l-.123-.09.046-.062"/></g><g><path d="M11.503 9.367l.123-.09-.046-.062M11.58 9.424l.048-.144.074.024"/></g></g><g fill="#FFF"><path d="M12.04 8.78l-.036.115.06.02M11.964 8.78l.037.115-.058.02"/><path d="M12.13 8.9h-.12v.063M12.106 8.826l-.098.072-.037-.05"/><path d="M11.9 8.826l.097.072.037-.05M11.875 8.9h.12v.063"/><g><path d="M12.042 9.022l-.037-.115-.06.02M12.105 8.976l-.098-.07.037-.05"/></g><g><path d="M11.9 8.976l.098-.07-.037-.05M11.963 9.022L12 8.907l.06.02"/></g></g><g fill="#FFF"><path d="M11.324 8.676l-.037.115.06.02M11.247 8.676l.037.115-.06.02"/><path d="M11.413 8.797h-.12v.062M11.39 8.723l-.1.07-.036-.05"/><path d="M11.182 8.723l.098.07.037-.05M11.158 8.797h.12v.062"/><g><path d="M11.325 8.918l-.037-.115-.06.02M11.388 8.872l-.098-.07.037-.05"/></g><g><path d="M11.183 8.872l.098-.07-.036-.05M11.246 8.918l.037-.115.06.02"/></g></g><g fill="#FFF"><path d="M8.635 8.496l-.056.173.088.028M8.52 8.496l.057.173-.088.028"/><path d="M8.762 8.67H8.58v.094M8.726 8.562l-.147.107-.056-.077"/><path d="M8.43 8.562l.147.107.055-.077M8.395 8.67h.182v.094"/><g><path d="M8.634 8.845l-.056-.173-.088.03M8.727 8.778L8.58 8.67l.055-.075"/></g><g><path d="M8.43 8.778l.147-.107-.055-.075M8.522 8.845l.056-.173.09.03"/></g></g><g fill="#FFF"><path d="M10.353 9.67l-.03.095.046.016"/><path d="M10.337 9.67l.03.095-.047.016"/><path d="M10.398 9.742h-.1v.05"/><path d="M10.393 9.727l-.08.06-.03-.042"/><path d="M10.27 9.69l.08.06.03-.04"/><path d="M10.265 9.706h.1v.05"/><g><path d="M10.344 9.808l-.03-.095-.05.015"/><path d="M10.357 9.798l-.08-.058.028-.04"/></g><g><path d="M10.265 9.776l.08-.06-.03-.04"/><path d="M10.277 9.785l.03-.095.05.016"/></g></g></g></g></g></svg>